<svg xmlns="http://www.w3.org/2000/svg" xmlns:xlink="http://www.w3.org/1999/xlink" style="margin:auto;background:#fff;display:block;" width="380" height="380" viewBox="0 0 100 100" preserveAspectRatio="xMidYMid">
<defs>
  <path id="path" d="M50 15A15 35 0 0 1 50 85A15 35 0 0 1 50 15" fill="none"></path>
  <path id="patha" d="M0 0A15 35 0 0 1 0 70A15 35 0 0 1 0 0" fill="none"></path>
<path id="path" d="M50 15A15 35 0 0 1 50 85A15 35 0 0 1 50 15" fill="none"></path><path id="path" d="M50 15A15 35 0 0 1 50 85A15 35 0 0 1 50 15" fill="none"></path><path id="path" d="M50 15A15 35 0 0 1 50 85A15 35 0 0 1 50 15" fill="none"></path></defs><g transform="rotate(0 50 50)">
<use xlink:href="#path" stroke="#F1F2F3" stroke-width="3px"></use>
</g><g transform="rotate(60 50 50)">
<use xlink:href="#path" stroke="#F1F2F3" stroke-width="3px"></use>
</g><g transform="rotate(120 50 50)">
<use xlink:href="#path" stroke="#F1F2F3" stroke-width="3px"></use>
</g><g transform="rotate(0 50 50)">
<circle cx="50" cy="15" r="9" fill="#E15B64">
  <animateMotion dur="1s" repeatCount="indefinite" begin="0s" fill="#E15B64">
    <mpath xlink:href="#patha" fill="#E15B64"></mpath>
  </animateMotion>
</circle>
</g><g transform="rotate(60 50 50)">
<circle cx="50" cy="15" r="9" fill="#F8B26A">
  <animateMotion dur="1s" repeatCount="indefinite" begin="-0.16666666666666666s" fill="#F8B26A">
    <mpath xlink:href="#patha" fill="#F8B26A"></mpath>
  </animateMotion>
</circle>
</g><g transform="rotate(120 50 50)">
<circle cx="50" cy="15" r="9" fill="#ABBD81">
  <animateMotion dur="1s" repeatCount="indefinite" begin="-0.3333333333333333s" fill="#ABBD81">
    <mpath xlink:href="#patha" fill="#ABBD81"></mpath>
  </animateMotion>
</circle>
</g>
</svg>